<svg id="SvgjsSvg1001" width="288" height="288" xmlns="http://www.w3.org/2000/svg" version="1.1" xmlns:xlink="http://www.w3.org/1999/xlink" xmlns:svgjs="http://svgjs.com/svgjs"><defs id="SvgjsDefs1002"></defs><g id="SvgjsG1008"><svg xmlns="http://www.w3.org/2000/svg" viewBox="0 0 24 24" width="288" height="288"><path fill="#d6f9d6" d="m21.5 18-10 5.5-10-5.5V7l10-5.5 10 5.5z" class="colorfff svgShape"></path><path fill="#6ee4d3" d="M1.5 18l10 5.5 10-5.5-2.1-1.3-7.9 4.3-7.9-4.3zM13.5 8.5l-1.5 3 1 1-1.5 1.5-.5-.5-1.5 3h4l5-4z" class="colorcce7ff svgShape"></path><path fill="none" stroke="#005061" stroke-linecap="round" stroke-linejoin="round" stroke-miterlimit="10" d="m21.5 18-10 5.5-10-5.5V7l10-5.5 10 5.5z" class="colorStroke1078ff svgStroke"></path><path fill="none" stroke="#005061" stroke-linecap="round" stroke-linejoin="round" stroke-miterlimit="10" d="M10.4 11.4h2.1v2.1h-2.1z" transform="rotate(-45.001 11.5 12.5)" class="colorStroke1078ff svgStroke"></path><path fill="none" stroke="#005061" stroke-linecap="round" stroke-linejoin="round" stroke-miterlimit="10" d="M13.5 16.5h-4l-5-4 5-4h4l5 4z" class="colorStroke1078ff svgStroke"></path><path fill="none" d="M0 0h24v24H0z"></path></svg></g></svg>